<?xml version="1.0" encoding="UTF-8"?>
<svg xmlns="http://www.w3.org/2000/svg" xmlns:xlink="http://www.w3.org/1999/xlink" width="2836" height="2836" viewBox="0 0 2836 2836">

<path fill-rule="evenodd" fill="rgb(0%, 0%, 0%)" fill-opacity="1" d="M 1526.648438 2014.707031 C 1540.171875 2132.019531 1585.199219 2209.324219 1661.75 2246.621094 C 1853.039062 2339.8125 2024.75 2079.90625 1850.980469 1939.039062 C 1851.890625 2146.449219 1666.398438 2166.066406 1622.160156 1996.550781 C 1595.019531 2004.65625 1562.160156 2010.707031 1526.648438 2014.707031 Z M 1650.050781 1801.058594 C 1679.011719 1840.070312 1678.25 1884.132812 1647.789062 1933.238281 C 1578.769531 1985.199219 1257.640625 1985.199219 1188.621094 1933.238281 C 1158.160156 1884.132812 1157.398438 1840.070312 1186.359375 1801.058594 C 1282.148438 1845.425781 1554.261719 1845.425781 1650.050781 1801.058594 Z M 2421.648438 1369.628906 C 2454.261719 1494.179688 2454 1785.71875 2150.121094 1851.023438 C 2307.558594 1514.609375 1811.101562 1404.320312 1646.308594 1749.621094 L 1629.851562 1757.25 C 1606.660156 1767.988281 1570 1775.71875 1527.109375 1780.441406 C 1580.359375 1525.890625 1749.359375 1172.410156 2021.789062 1133.339844 C 2183.578125 1110.140625 2378.21875 1203.78125 2421.648438 1369.628906 Z M 414.761719 1369.628906 C 382.148438 1494.179688 382.410156 1785.71875 686.292969 1851.023438 C 528.851562 1514.609375 1025.308594 1404.320312 1190.101562 1749.621094 L 1206.558594 1757.25 C 1229.75 1767.988281 1266.410156 1775.71875 1309.300781 1780.441406 C 1256.210938 1526.628906 1088.039062 1174.46875 817.007812 1133.691406 C 654.625 1109.261719 458.394531 1202.988281 414.761719 1369.628906 Z M 1351.820312 1784.019531 C 1326.53125 1618.039062 1284.46875 1481.570312 1225.621094 1374.640625 C 992.042969 880.941406 1193 671.878906 1418.210938 246.171875 C 1643.410156 671.878906 1844.371094 880.941406 1610.789062 1374.640625 C 1551.949219 1481.570312 1509.878906 1618.039062 1484.589844 1784.019531 C 1463.070312 1785.339844 1440.691406 1785.988281 1418.210938 1785.988281 C 1395.71875 1785.988281 1373.339844 1785.339844 1351.820312 1784.019531 Z M 1470.351562 2019.238281 C 1482.46875 2152.765625 1553.460938 2291.289062 1716.898438 2370.335938 C 1647.949219 2380.46875 1552.371094 2382.988281 1505.410156 2341.632812 C 1504.550781 2422.523438 1484.570312 2534.589844 1418.210938 2589.417969 C 1352.101562 2536.105469 1331.839844 2421.15625 1331 2341.632812 C 1284.039062 2382.988281 1188.460938 2380.46875 1119.511719 2370.335938 C 1282.949219 2291.289062 1353.941406 2152.765625 1366.070312 2019.238281 C 1383.320312 2020.109375 1400.800781 2020.550781 1418.210938 2020.550781 C 1435.609375 2020.550781 1453.089844 2020.109375 1470.351562 2019.238281 Z M 1309.761719 2014.707031 C 1296.238281 2132.019531 1251.210938 2209.324219 1174.660156 2246.621094 C 983.371094 2339.8125 811.660156 2079.90625 985.425781 1939.039062 C 984.523438 2146.449219 1170.011719 2166.066406 1214.25 1996.550781 C 1241.390625 2004.65625 1274.25 2010.707031 1309.761719 2014.707031 "/>
</svg>
